<svg width="56" height="56" viewBox="0 0 56 56" fill="none" xmlns="http://www.w3.org/2000/svg">
<g filter="url(#filter0_d_3_25)">
<circle cx="28" cy="24" r="24" fill="#F7F7F9"/>
</g>
<path d="M10.6719 36.5859C9.98438 36.5859 9.64062 36.25 9.64062 35.5781C9.64062 34.8828 10.2773 34.3555 11.5508 33.9961C14.957 33.0586 17.3906 31.9062 18.8516 30.5391C20.4453 29.0391 21.2422 26.9727 21.2422 24.3398C21.2422 22.918 21.1094 21.8008 20.8438 20.9883C20.5859 20.1758 20.3086 19.5273 20.0117 19.043C19.7227 18.5508 19.3633 18.125 18.9336 17.7656C18.0195 17.0156 16.8633 16.6406 15.4648 16.6406C12.7383 16.6406 10.9766 18.0273 10.1797 20.8008C9.91406 21.7461 9.78125 22.8672 9.78125 24.1641C9.78125 27.2109 10.5703 29.2109 12.1484 30.1641C12.5312 30.3984 12.9844 30.5547 13.5078 30.6328C13.6719 30.6797 13.793 30.793 13.8711 30.9727C14.0117 31.293 14.0352 31.5039 13.9414 31.6055C13.7461 31.8164 13.3438 31.9141 12.7344 31.8984C12.1328 31.875 11.5664 31.7734 11.0352 31.5938C10.5039 31.4141 10.0156 31.1641 9.57031 30.8438C9.125 30.5234 8.73047 30.1484 8.38672 29.7188C8.04297 29.2891 7.75 28.8125 7.50781 28.2891C7.01562 27.2266 6.76953 26.0898 6.76953 24.8789C6.76953 23.668 6.89453 22.5938 7.14453 21.6562C7.40234 20.7109 7.75 19.8711 8.1875 19.1367C8.63281 18.3945 9.15234 17.7539 9.74609 17.2148C10.3477 16.668 10.9922 16.2188 11.6797 15.8672C13.0312 15.1641 14.3789 14.8125 15.7227 14.8125C17.0664 14.8125 18.2344 15.0117 19.2266 15.4102C20.2266 15.8008 21.0938 16.3672 21.8281 17.1094C23.4219 18.7109 24.2188 20.8281 24.2188 23.4609C24.2188 27.2891 22.7969 30.2031 19.9531 32.2031C18.7734 33.0234 17.3711 33.6797 15.7461 34.1719L16.8594 34.6172C18.2734 35.1641 19.3594 35.4375 20.1172 35.4375C21.9062 35.4375 23.1484 35 23.8438 34.125C24.1094 34.1094 24.3086 34.1953 24.4414 34.3828C24.5742 34.5781 24.6406 34.832 24.6406 35.1445C24.6406 35.457 24.5352 35.7891 24.3242 36.1406C24.1133 36.5 23.8164 36.8125 23.4336 37.0781C22.6055 37.6641 21.5742 37.957 20.3398 37.957C19.5586 37.957 18.793 37.8125 18.043 37.5234C17.293 37.2422 16.7031 37 16.2734 36.7969L15.0078 36.2461C14.0781 35.8477 13.4062 35.6484 12.9922 35.6484C12.5859 35.6484 12.2656 35.6758 12.0312 35.7305C11.7969 35.7852 11.5977 35.8555 11.4336 35.9414C11.2227 36.0508 10.9688 36.2656 10.6719 36.5859Z" fill="black"/>
<path d="M28.653 33.054C28.455 33.3693 28.2093 33.626 27.916 33.824C27.6227 34.022 27.2523 34.121 26.805 34.121C26.5997 34.121 26.398 34.0953 26.2 34.044C26.0093 33.9927 25.8333 33.912 25.672 33.802C25.518 33.692 25.3823 33.549 25.265 33.373C25.1477 33.1897 25.0633 32.9697 25.012 32.713C24.9973 32.647 24.9827 32.5737 24.968 32.493C24.9607 32.4123 24.9533 32.3097 24.946 32.185C24.946 32.053 24.9423 31.8953 24.935 31.712C24.935 31.5213 24.935 31.2867 24.935 31.008V30.018C24.935 29.9373 24.9167 29.8567 24.88 29.776C24.8433 29.6953 24.814 29.644 24.792 29.622C24.7187 29.534 24.627 29.4827 24.517 29.468C24.407 29.4533 24.2933 29.446 24.176 29.446L24.143 29.402V29.028L24.176 28.995H24.715C24.8837 28.995 25.0633 28.995 25.254 28.995C25.4447 28.9877 25.6133 28.973 25.76 28.951L26.145 28.896L26.211 29.105C26.1963 29.1343 26.1853 29.1893 26.178 29.27C26.1707 29.3433 26.1633 29.424 26.156 29.512C26.1487 29.6 26.145 29.6843 26.145 29.765C26.145 29.8457 26.145 29.908 26.145 29.952C26.145 30.0473 26.1413 30.1647 26.134 30.304C26.134 30.436 26.1303 30.5753 26.123 30.722C26.123 30.8613 26.1193 30.997 26.112 31.129C26.112 31.261 26.112 31.371 26.112 31.459C26.112 31.6497 26.1193 31.844 26.134 32.042C26.1487 32.2327 26.178 32.4087 26.222 32.57C26.2953 32.8267 26.4053 33.0173 26.552 33.142C26.706 33.2593 26.9187 33.318 27.19 33.318C27.41 33.318 27.6043 33.2813 27.773 33.208C27.949 33.1347 28.0993 33.0467 28.224 32.944C28.3487 32.8413 28.4513 32.7313 28.532 32.614C28.6127 32.4893 28.664 32.3793 28.686 32.284V31.184C28.686 30.8467 28.6787 30.5863 28.664 30.403C28.6567 30.2197 28.6457 30.0767 28.631 29.974C28.6163 29.8787 28.5943 29.8017 28.565 29.743C28.543 29.6843 28.521 29.644 28.499 29.622C28.4183 29.534 28.3157 29.4827 28.191 29.468C28.0663 29.4533 27.9673 29.446 27.894 29.446L27.85 29.402V29.028L27.894 28.995H28.092C28.1653 28.995 28.2607 28.995 28.378 28.995C28.5027 28.995 28.631 28.995 28.763 28.995C28.895 28.9877 29.0233 28.984 29.148 28.984C29.2727 28.9767 29.379 28.9657 29.467 28.951L29.852 28.896L29.918 29.105C29.8813 29.3177 29.8557 29.5963 29.841 29.941C29.8337 30.1243 29.8263 30.2747 29.819 30.392C29.819 30.502 29.819 30.5937 29.819 30.667C29.819 30.7403 29.819 30.799 29.819 30.843C29.819 30.8797 29.819 30.9163 29.819 30.953V31.855C29.819 32.2583 29.83 32.614 29.852 32.922C29.8667 33.0613 29.885 33.175 29.907 33.263C29.929 33.3437 29.9693 33.4097 30.028 33.461C30.094 33.5197 30.171 33.5563 30.259 33.571C30.347 33.5783 30.4533 33.582 30.578 33.582L30.622 33.626L30.644 34L30.622 34.033C30.4827 34.0183 30.347 34.0073 30.215 34C30.083 34 29.929 34 29.753 34C29.577 34 29.39 34 29.192 34C28.994 34.0073 28.8033 34.0183 28.62 34.033L28.554 33.813C28.576 33.7323 28.598 33.626 28.62 33.494C28.6493 33.3547 28.6713 33.2153 28.686 33.076L28.653 33.054ZM34.043 34.044C33.9917 34.044 33.9147 34.0403 33.812 34.033C33.7093 34.0257 33.5993 34.0183 33.482 34.011C33.3647 34.011 33.2547 34.0073 33.152 34C33.0493 34 32.9723 34 32.921 34H32.327C32.2757 34 32.195 34 32.085 34C31.9823 34.0073 31.8723 34.011 31.755 34.011C31.645 34.0183 31.535 34.0257 31.425 34.033C31.3223 34.0403 31.2453 34.044 31.194 34.044L31.183 34L31.205 33.626L31.238 33.582C31.348 33.582 31.4617 33.5783 31.579 33.571C31.6963 33.5563 31.7843 33.5197 31.843 33.461C31.8943 33.4097 31.931 33.3437 31.953 33.263C31.975 33.1823 31.9933 33.0687 32.008 32.922C32.0153 32.8707 32.019 32.8193 32.019 32.768C32.0263 32.7167 32.03 32.6617 32.03 32.603C32.0373 32.5443 32.041 32.4747 32.041 32.394C32.041 32.3133 32.041 32.2143 32.041 32.097V30.854C32.041 30.7147 32.041 30.6047 32.041 30.524C32.041 30.436 32.0373 30.3627 32.03 30.304C32.03 30.2453 32.0263 30.194 32.019 30.15C32.019 30.0987 32.0153 30.04 32.008 29.974C31.9933 29.9007 31.9713 29.831 31.942 29.765C31.9127 29.699 31.887 29.655 31.865 29.633C31.7917 29.5377 31.7 29.4827 31.59 29.468C31.48 29.4533 31.3663 29.446 31.249 29.446L31.205 29.402V29.028L31.249 28.995H31.81C31.9787 28.995 32.1583 28.995 32.349 28.995C32.5397 28.9877 32.7083 28.973 32.855 28.951L33.24 28.896L33.306 29.105C33.2913 29.1343 33.2767 29.182 33.262 29.248C33.2547 29.3067 33.2473 29.3727 33.24 29.446C33.24 29.512 33.2363 29.5817 33.229 29.655C33.229 29.721 33.229 29.776 33.229 29.82C33.229 29.8787 33.2253 29.9337 33.218 29.985C33.218 30.029 33.218 30.084 33.218 30.15C33.218 30.2087 33.2143 30.2857 33.207 30.381C33.207 30.4763 33.207 30.5937 33.207 30.733V31.965C33.207 32.1117 33.207 32.2327 33.207 32.328C33.2143 32.416 33.218 32.493 33.218 32.559C33.2253 32.625 33.229 32.6873 33.229 32.746C33.2363 32.7973 33.2437 32.856 33.251 32.922C33.2657 33.076 33.2803 33.1933 33.295 33.274C33.317 33.3473 33.3573 33.4097 33.416 33.461C33.4747 33.5197 33.5553 33.5563 33.658 33.571C33.768 33.5783 33.878 33.582 33.988 33.582L34.043 33.637L34.065 34L34.043 34.044ZM31.81 27.257C31.81 27.169 31.8283 27.081 31.865 26.993C31.9017 26.905 31.953 26.828 32.019 26.762C32.085 26.6887 32.1583 26.6337 32.239 26.597C32.327 26.553 32.4187 26.531 32.514 26.531C32.6973 26.531 32.8623 26.608 33.009 26.762C33.163 26.9087 33.24 27.0737 33.24 27.257C33.24 27.3523 33.218 27.444 33.174 27.532C33.1373 27.6127 33.0823 27.686 33.009 27.752C32.943 27.818 32.866 27.8693 32.778 27.906C32.69 27.9427 32.602 27.961 32.514 27.961C32.3233 27.961 32.1583 27.8913 32.019 27.752C31.8797 27.6127 31.81 27.4477 31.81 27.257ZM36.4703 30.106C36.5436 29.9667 36.6243 29.82 36.7123 29.666C36.8076 29.512 36.914 29.369 37.0313 29.237C37.1486 29.105 37.2806 28.995 37.4273 28.907C37.5813 28.819 37.7536 28.775 37.9443 28.775C38.003 28.775 38.0726 28.7823 38.1533 28.797C38.2413 28.8043 38.3256 28.819 38.4063 28.841C38.4943 28.863 38.5786 28.8887 38.6593 28.918C38.74 28.9473 38.8023 28.9803 38.8463 29.017L38.9233 29.083L38.7913 30.271H38.3183C38.2963 30.183 38.2376 30.095 38.1423 30.007C38.0543 29.9117 37.915 29.864 37.7243 29.864C37.5556 29.864 37.4016 29.908 37.2623 29.996C37.123 30.0767 37.002 30.1793 36.8993 30.304C36.7966 30.4287 36.716 30.5643 36.6573 30.711C36.5986 30.8503 36.5693 30.9787 36.5693 31.096V31.855C36.5693 32.1337 36.5693 32.3427 36.5693 32.482C36.5766 32.6213 36.584 32.7423 36.5913 32.845C36.606 33.0063 36.6243 33.1383 36.6463 33.241C36.6756 33.3363 36.7196 33.4097 36.7783 33.461C36.8076 33.4903 36.8516 33.516 36.9103 33.538C36.9763 33.5527 37.0423 33.5637 37.1083 33.571C37.1743 33.5783 37.2366 33.582 37.2953 33.582C37.3613 33.582 37.4126 33.582 37.4493 33.582L37.5043 33.637L37.5263 34L37.5043 34.044C37.4603 34.044 37.387 34.0403 37.2843 34.033C37.1816 34.0257 37.0716 34.0183 36.9543 34.011C36.837 34.011 36.727 34.0073 36.6243 34C36.5216 34 36.4483 34 36.4043 34H35.7003C35.649 34 35.5683 34 35.4583 34C35.3556 34.0073 35.2456 34.011 35.1283 34.011C35.011 34.0183 34.8973 34.0257 34.7873 34.033C34.6846 34.0403 34.6076 34.044 34.5563 34.044L34.5453 34L34.5673 33.626L34.6003 33.582C34.725 33.582 34.8423 33.5783 34.9523 33.571C35.0623 33.5563 35.1466 33.5197 35.2053 33.461C35.264 33.4097 35.3043 33.3437 35.3263 33.263C35.3556 33.1823 35.3776 33.043 35.3923 32.845C35.3996 32.757 35.4033 32.6397 35.4033 32.493C35.4033 32.3463 35.4033 32.141 35.4033 31.877V31.074C35.4033 30.92 35.4033 30.7917 35.4033 30.689C35.4033 30.579 35.3996 30.4837 35.3923 30.403C35.3923 30.3223 35.3886 30.249 35.3813 30.183C35.3813 30.117 35.3776 30.0473 35.3703 29.974C35.3556 29.9007 35.3336 29.831 35.3043 29.765C35.275 29.699 35.2493 29.655 35.2273 29.633C35.154 29.5377 35.0623 29.4827 34.9523 29.468C34.8423 29.4533 34.7286 29.446 34.6113 29.446L34.5673 29.402V29.028L34.6113 28.995H34.8093C34.9706 28.995 35.1796 28.995 35.4363 28.995C35.693 28.9877 35.9166 28.973 36.1073 28.951L36.4923 28.896L36.5583 29.105C36.5143 29.2443 36.4813 29.402 36.4593 29.578C36.4446 29.754 36.4373 29.9263 36.4373 30.095L36.4703 30.106ZM39.269 26.003L39.313 25.959H39.863C40.0317 25.959 40.2114 25.959 40.402 25.959C40.5927 25.9517 40.7614 25.937 40.908 25.915L41.304 25.86L41.37 26.069C41.3554 26.0983 41.3407 26.1533 41.326 26.234C41.3187 26.3073 41.3114 26.388 41.304 26.476C41.304 26.564 41.3004 26.6483 41.293 26.729C41.293 26.8097 41.293 26.872 41.293 26.916C41.293 27.0333 41.2894 27.1433 41.282 27.246C41.282 27.3487 41.2784 27.4697 41.271 27.609C41.271 27.7483 41.2674 27.917 41.26 28.115C41.26 28.313 41.26 28.566 41.26 28.874V30.975L42.426 29.886C42.5067 29.8053 42.547 29.7283 42.547 29.655C42.547 29.5377 42.3784 29.4497 42.041 29.391L41.997 29.347V28.995L42.041 28.951C42.1804 28.9657 42.3197 28.9803 42.459 28.995C42.5984 29.0097 42.7414 29.017 42.888 29.017H43.559C43.6837 29.017 43.8084 29.0097 43.933 28.995C44.0577 28.9803 44.1824 28.9657 44.307 28.951L44.34 28.995V29.369L44.285 29.424C44.2264 29.4387 44.1494 29.457 44.054 29.479C43.966 29.501 43.8854 29.534 43.812 29.578C43.702 29.644 43.5884 29.721 43.471 29.809C43.361 29.897 43.2474 29.9923 43.13 30.095C43.02 30.1977 42.9064 30.304 42.789 30.414C42.679 30.5167 42.5764 30.612 42.481 30.7L42.239 30.92L43.669 32.68C43.7864 32.8267 43.8964 32.955 43.999 33.065C44.1017 33.1677 44.208 33.2557 44.318 33.329C44.428 33.4023 44.5454 33.461 44.67 33.505C44.7947 33.549 44.9414 33.5747 45.11 33.582L45.143 33.626L45.165 34L45.143 34.044C44.9597 34.0587 44.758 34.066 44.538 34.066C44.3254 34.0733 44.109 34.077 43.889 34.077C43.7277 34.077 43.5774 34.0293 43.438 33.934C43.2987 33.8313 43.1777 33.7177 43.075 33.593L41.326 31.437L41.26 31.503C41.26 31.7523 41.2637 32.009 41.271 32.273C41.2784 32.5297 41.2894 32.746 41.304 32.922C41.3114 33.076 41.326 33.1933 41.348 33.274C41.37 33.3473 41.4104 33.4097 41.469 33.461C41.5277 33.5197 41.6084 33.5563 41.711 33.571C41.821 33.5783 41.931 33.582 42.041 33.582L42.096 33.637L42.118 34L42.096 34.044C42.0374 34.044 41.9567 34.0403 41.854 34.033C41.7514 34.0257 41.645 34.0183 41.535 34.011C41.425 34.011 41.315 34.0073 41.205 34C41.1024 34 41.0254 34 40.974 34H40.38C40.3287 34 40.248 34 40.138 34C40.0354 34.0073 39.9254 34.011 39.808 34.011C39.698 34.0183 39.588 34.0257 39.478 34.033C39.3754 34.0403 39.2984 34.044 39.247 34.044L39.236 34L39.258 33.626L39.291 33.582C39.4084 33.582 39.522 33.5783 39.632 33.571C39.7494 33.5563 39.8374 33.5197 39.896 33.461C39.9547 33.4097 39.9914 33.3437 40.006 33.263C40.028 33.1823 40.0464 33.0687 40.061 32.922C40.0684 32.8413 40.072 32.7607 40.072 32.68C40.0794 32.592 40.083 32.493 40.083 32.383C40.0904 32.273 40.094 32.141 40.094 31.987C40.094 31.833 40.094 31.646 40.094 31.426V29.006C40.094 28.7053 40.094 28.4523 40.094 28.247C40.094 28.0343 40.0904 27.851 40.083 27.697C40.083 27.543 40.0794 27.4073 40.072 27.29C40.072 27.1727 40.0684 27.0553 40.061 26.938C40.0537 26.8573 40.0317 26.7877 39.995 26.729C39.9657 26.663 39.94 26.6153 39.918 26.586C39.8447 26.5053 39.753 26.4577 39.643 26.443C39.5404 26.421 39.4304 26.41 39.313 26.41L39.269 26.366V26.003Z" fill="black"/>
<path d="M36.9194 20.4737L37.9863 16.0049C38.0633 15.6822 37.8057 15.375 37.4581 15.375H28.5932L28.3864 14.4123C28.3348 14.1723 28.113 14 27.8557 14H25.5417C25.2425 14 25 14.2308 25 14.5156V14.8594C25 15.1442 25.2425 15.375 25.5417 15.375H27.1189L28.7043 22.7535C28.325 22.9611 28.0694 23.3505 28.0694 23.7969C28.0694 24.4613 28.6353 25 29.3333 25C30.0314 25 30.5972 24.4613 30.5972 23.7969C30.5972 23.4601 30.4517 23.1559 30.2175 22.9375H34.9491C34.715 23.1559 34.5694 23.4601 34.5694 23.7969C34.5694 24.4613 35.1353 25 35.8333 25C36.5314 25 37.0972 24.4613 37.0972 23.7969C37.0972 23.3205 36.8063 22.9089 36.3845 22.714L36.509 22.1924C36.586 21.8697 36.3284 21.5625 35.9808 21.5625H29.9228L29.7751 20.875H36.3912C36.6441 20.875 36.8633 20.7084 36.9194 20.4737Z" fill="black"/>
<defs>
<filter id="filter0_d_3_25" x="0" y="0" width="56" height="56" filterUnits="userSpaceOnUse" color-interpolation-filters="sRGB">
<feFlood flood-opacity="0" result="BackgroundImageFix"/>
<feColorMatrix in="SourceAlpha" type="matrix" values="0 0 0 0 0 0 0 0 0 0 0 0 0 0 0 0 0 0 127 0" result="hardAlpha"/>
<feOffset dy="4"/>
<feGaussianBlur stdDeviation="2"/>
<feComposite in2="hardAlpha" operator="out"/>
<feColorMatrix type="matrix" values="0 0 0 0 0 0 0 0 0 0 0 0 0 0 0 0 0 0 0.25 0"/>
<feBlend mode="normal" in2="BackgroundImageFix" result="effect1_dropShadow_3_25"/>
<feBlend mode="normal" in="SourceGraphic" in2="effect1_dropShadow_3_25" result="shape"/>
</filter>
</defs>
</svg>
